# xmcd CD database file
#
# Track frame offsets:
#	150
#	18317
#	33182
#
# Disc length: 682 seconds
#
# Revision: 0
# Processed by: cddbd v1.5PL3 Copyright (c) Steve Scherf et al.
# Submitted via: CDex 1.51
#
DISCID=1602a803
DTITLE=PAMELAH - キズナ
DYEAR=1998
DGENRE=JPop
TTITLE0=キズナ
TTITLE1=心の鍵
TTITLE2=キズナ (オリジナル･カラオケ)
EXTD=YEAR: 1998
EXTT0=
EXTT1=
EXTT2=
PLAYORDER=
